# xmcd
#
# Track frame offsets: 
#        150
#        9604
#        21040
#        33268
#        44625
#        55274
#        66727
#        78085
#        91247
#        102626
#        113728
#        123832
#        137813
#        150253
#        161828
#        173106
#        185155
#        197949
#        209066
#        220199
#        232561
#        245567
#        257539
#        269045
#
# Disc length: 3707 seconds
#
# Revision: 0
# Processed by: cddbd v1.5.2PL0 Copyright (c) Steve Scherf et al.
# Submitted via: ExactAudioCopyFreeDBPlugin 1.0
#
DISCID=5a0e7918
DTITLE=Hank Ballard - Hank Ballard and The Midnighters:  Five Classic Al
DTITLE=bums plus Singles, 1954-1962 [Real Gone Music]
DYEAR=2016
DGENRE=Rhythm and Blues
TTITLE0=Excuse Me (I Think I've Got a Heartache)
TTITLE1=She's the One
TTITLE2=Your Lovin'
TTITLE3=I Want to Thank You (From the Bottom of My Heart)
TTITLE4=Dream World
TTITLE5=It's Twistin' Time
TTITLE6=Get Ready
TTITLE7=I'm Learning
TTITLE8=What's Your Name
TTITLE9=Autumn Breeze
TTITLE10=After School
TTITLE11=Good Twistin' Tonight
TTITLE12=Work with Me Annie
TTITLE13=Give it Up
TTITLE14=Sexy Ways
TTITLE15=Annie Had a Baby
TTITLE16=Annie's Aunt Fannie
TTITLE17=Why Are We Apart
TTITLE18=Switchie, Witchie, Titchie
TTITLE19=Henry's Got Flat Feet (Can't Dance No More)
TTITLE20=It's Love Baby (24 Hours a Day)
TTITLE21=Looka Here
TTITLE22=Give it Up
TTITLE23=That Woman
EXTD=
EXTT0=
EXTT1=
EXTT2=
EXTT3=
EXTT4=
EXTT5=
EXTT6=
EXTT7=
EXTT8=
EXTT9=
EXTT10=
EXTT11=
EXTT12=
EXTT13=
EXTT14=
EXTT15=
EXTT16=
EXTT17=
EXTT18=
EXTT19=
EXTT20=
EXTT21=
EXTT22=
EXTT23=
PLAYORDER=
